<mxfile host="65bd71144e">
    <diagram id="ub4MGeQx-h_Q1evHfHtv" name="Page-1">
        <mxGraphModel dx="902" dy="475" grid="1" gridSize="10" guides="1" tooltips="1" connect="1" arrows="1" fold="1" page="1" pageScale="1" pageWidth="850" pageHeight="1100" math="0" shadow="0">
            <root>
                <mxCell id="0"/>
                <mxCell id="1" parent="0"/>
                <mxCell id="5" style="edgeStyle=none;html=1;" parent="1" source="2" target="3" edge="1">
                    <mxGeometry relative="1" as="geometry"/>
                </mxCell>
                <mxCell id="2" value="&lt;table border=&quot;1&quot; width=&quot;100%&quot; height=&quot;100%&quot; cellpadding=&quot;4&quot; style=&quot;width:100%;height:100%;border-collapse:collapse;&quot;&gt;&lt;tbody&gt;&lt;tr&gt;&lt;th style=&quot;text-align: center;&quot;&gt;&lt;b&gt;Reserva&lt;/b&gt;&lt;/th&gt;&lt;/tr&gt;&lt;tr&gt;&lt;td&gt;&lt;div style=&quot;&quot;&gt;&lt;span style=&quot;background-color: transparent;&quot;&gt;id: int&lt;/span&gt;&lt;/div&gt;&lt;div style=&quot;&quot;&gt;&lt;span style=&quot;background-color: transparent;&quot;&gt;cliente: str&lt;/span&gt;&lt;/div&gt;bicicleta: Bicicleta&lt;br&gt;precio: int&lt;br&gt;fecha: date&lt;br&gt;hora: time&lt;br&gt;&lt;br&gt;&lt;/td&gt;&lt;/tr&gt;&lt;tr&gt;&lt;td&gt;asignar_cliente()&lt;br&gt;asignar_bicicleta()&lt;br&gt;empezar_viaje&lt;br&gt;terminar_viaje&lt;br&gt;calcular_precio&lt;br&gt;&lt;span style=&quot;color: rgb(63, 63, 63);&quot;&gt;realizar_cobro()&lt;br&gt;&lt;/span&gt;cancelar_reserva()&lt;br style=&quot;color: rgb(63, 63, 63);&quot;&gt;&lt;br&gt;&lt;/td&gt;&lt;/tr&gt;&lt;/tbody&gt;&lt;/table&gt;" style="text;html=1;whiteSpace=wrap;strokeColor=none;fillColor=none;overflow=fill;align=left;" parent="1" vertex="1">
                    <mxGeometry x="490" y="20" width="180" height="260" as="geometry"/>
                </mxCell>
                <mxCell id="3" value="&lt;table border=&quot;1&quot; width=&quot;100%&quot; height=&quot;100%&quot; cellpadding=&quot;4&quot; style=&quot;width:100%;height:100%;border-collapse:collapse;&quot;&gt;&lt;tbody&gt;&lt;tr&gt;&lt;th style=&quot;text-align: center;&quot;&gt;Bicicleta&lt;/th&gt;&lt;/tr&gt;&lt;tr&gt;&lt;td&gt;id: int&lt;br&gt;marca: int&lt;br&gt;modelo: int&lt;br&gt;cantidad: int&lt;br&gt;disponible: bool&lt;/td&gt;&lt;/tr&gt;&lt;tr&gt;&lt;td&gt;revisar_disponibilidad()&lt;br&gt;registrar()&lt;br&gt;mostrar_info&lt;br&gt;&lt;br&gt;&lt;/td&gt;&lt;/tr&gt;&lt;/tbody&gt;&lt;/table&gt;" style="text;html=1;whiteSpace=wrap;strokeColor=none;fillColor=none;overflow=fill;align=left;" parent="1" vertex="1">
                    <mxGeometry x="100" y="60" width="180" height="180" as="geometry"/>
                </mxCell>
            </root>
        </mxGraphModel>
    </diagram>
</mxfile>